<svg xmlns="http://www.w3.org/2000/svg" viewBox="0 0 32 32"><defs><style/></defs><title>X5GON_Library_Icons</title><g id="b0a87848-bed2-4bbc-b1ae-984c25487c78" data-name="Layer 3"><polygon points="15.3 16.08 15.3 16.08 16.7 15.92 15.3 16.08" class="5c8314ab-e211-4efa-8727-2d729ae2bed0"/><path d="M25.9,7l-1.4.17L12,8.68l-1.5.18V19.41A3.06,3.06,0,0,0,9,19a3,3,0,1,0,3,3V14.5L24.5,13v6.41A3.06,3.06,0,0,0,23,19a3,3,0,1,0,3,3V7ZM9,23.5A1.5,1.5,0,1,1,10.5,22,1.5,1.5,0,0,1,9,23.5Zm14,0A1.5,1.5,0,1,1,24.5,22,1.5,1.5,0,0,1,23,23.5Zm1.5-12L12,13V10.18l12.5-1.5Z" class="407caa2a-9aa7-42c0-9717-a074d5e59204"/></g></svg>