<svg xmlns="http://www.w3.org/2000/svg" viewBox="0 0 32 32">
  <defs>
    <style>
      .\32 e6fe70c-818c-4c4d-9099-978c42275151 {
        fill: red;
      }
    </style>
  </defs>
  <title>X5GON_Library_Icons</title>
  <g id="ac6a86cc-3d81-4183-b21a-b40a64e2236f" data-name="Layer 3">
    <polygon class="2e6fe70c-818c-4c4d-9099-978c42275151" points="15.3 16.08 15.3 16.08 16.7 15.92 15.3 16.08"/>
    <path d="M25.9,7l-1.4.17L12,8.68l-1.5.18V19.41A3.06,3.06,0,0,0,9,19a3,3,0,1,0,3,3V14.5L24.5,13v6.41A3.06,3.06,0,0,0,23,19a3,3,0,1,0,3,3V7ZM9,23.5A1.5,1.5,0,1,1,10.5,22,1.5,1.5,0,0,1,9,23.5Zm14,0A1.5,1.5,0,1,1,24.5,22,1.5,1.5,0,0,1,23,23.5Zm1.5-12L12,13V10.18l12.5-1.5Z"/>
  </g>
</svg>
