<svg xmlns="http://www.w3.org/2000/svg" width="24" height="24" viewBox="0 0 24 24"><path fill="#4A5472" fill-rule="evenodd" d="M11.963 0c3.375 0 6.187 1.163 8.512 3.487C22.837 5.813 24 8.625 24 12s-1.125 6.188-3.413 8.438C18.15 22.8 15.3 24 11.963 24c-3.225 0-6.075-1.163-8.438-3.525C1.163 18.112 0 15.3 0 12c0-3.262 1.163-6.112 3.525-8.512C5.85 1.163 8.662 0 11.963 0zm.075 2.175c-2.738 0-5.026.975-6.938 2.888C3.15 7.05 2.175 9.375 2.175 12c0 2.662.975 4.988 2.925 6.9 1.95 1.95 4.275 2.925 6.938 2.925 2.662 0 4.987-.975 6.974-2.925 1.875-1.837 2.813-4.125 2.813-6.862 0-2.738-.975-5.063-2.887-6.938-1.875-1.987-4.2-2.925-6.9-2.925zm4.875 6.413c.187 0 .337.075.487.187.113.112.188.3.188.487v8.813c0 .188-.076.338-.188.488a.713.713 0 0 1-.487.187h-6.526c-.187 0-.337-.075-.487-.188a.713.713 0 0 1-.188-.487V15.45H7.088c-.188 0-.338-.075-.488-.188a.713.713 0 0 1-.188-.487V5.962c0-.187.075-.3.188-.45a.894.894 0 0 1 .413-.224H13.613c.187 0 .337.074.487.187.113.113.188.3.188.488v2.625h2.625zm-9.188 5.55h1.988V9.224c0-.188.075-.3.187-.45a.894.894 0 0 1 .412-.225h2.7V6.6h-5.25c-.037.038-.037 7.537-.037 7.537zm8.55-4.275h-5.25V17.4h5.25V9.863z"/></svg>