<svg xmlns="http://www.w3.org/2000/svg" width="24" height="24" viewBox="0 0 24 24"><path fill="#4A5472" fill-rule="evenodd" d="M11.963 0c3.375 0 6.187 1.163 8.512 3.487C22.837 5.813 24 8.625 24 12s-1.125 6.188-3.413 8.438C18.15 22.8 15.3 24 11.963 24c-3.225 0-6.075-1.163-8.438-3.525C1.163 18.112 0 15.3 0 12c0-3.262 1.163-6.112 3.525-8.512C5.85 1.163 8.662 0 11.963 0zm.075 2.175c-2.738 0-5.026.975-6.938 2.888C3.15 7.05 2.175 9.375 2.175 12c0 2.662.975 4.988 2.925 6.9 1.95 1.95 4.275 2.925 6.938 2.925 2.662 0 4.987-.975 6.974-2.925 1.875-1.837 2.813-4.125 2.813-6.862 0-2.738-.975-5.063-2.887-6.938-1.875-1.987-4.2-2.925-6.9-2.925zm4.5 7.013v2.062h-8.7V9.187h8.7zm0 3.824v2.063h-8.7v-2.063h8.7z"/></svg>