<svg xmlns="http://www.w3.org/2000/svg" width="24" height="24" viewBox="0 0 24 24">
    <path fill="#4A5472" fill-rule="evenodd" d="M20.512 3.487C18.188 1.162 15.337 0 12 0 8.662 0 5.85 1.163 3.562 3.487 1.163 5.887 0 8.738 0 12c0 3.262 1.163 6.113 3.563 8.475C5.925 22.837 8.738 24 12 24c3.3 0 6.15-1.2 8.587-3.563C22.875 18.188 24 15.375 24 12c0-3.375-1.163-6.188-3.488-8.512zm-1.5 15.375c-1.987 1.95-4.312 2.926-7.012 2.926-2.7 0-4.987-.976-6.938-2.925-1.95-1.95-2.887-4.2-2.887-6.863 0-1.125.188-2.175.525-3.188l3.188 1.426h-.263v1.387H6.75c0 .188-.037.412-.037.6v.338H5.625v1.425h1.313c.187 1.05.6 1.912 1.125 2.625 1.124 1.5 2.925 2.287 4.912 2.287 1.275 0 2.438-.375 3.15-.75l-.488-2.212c-.412.225-1.35.524-2.287.524-1.012 0-1.95-.3-2.588-1.012-.3-.337-.524-.787-.675-1.425h4.35l6.188 2.737a8.493 8.493 0 0 1-1.613 2.1zm-4.05-7.237h.188V10.2h-3.412l-1.388-.6c.113-.262.263-.525.412-.713.638-.75 1.5-1.087 2.476-1.087.9 0 1.725.263 2.212.487L16.013 6c-.713-.338-1.8-.6-3-.6-1.876 0-3.488.75-4.65 2.063-.263.3-.488.637-.675.974L3.75 6.675c.375-.563.825-1.125 1.35-1.65C6.975 3.112 9.3 2.137 12 2.137c2.738 0 5.025.975 6.938 2.888C20.85 6.937 21.825 9.262 21.825 12c0 .9-.113 1.762-.3 2.55l-6.562-2.925z"/>
</svg>
