<svg xmlns="http://www.w3.org/2000/svg" xmlns:xlink="http://www.w3.org/1999/xlink" viewBox="0 0 32 32"><defs><style>.e4b799b6-759d-4846-8163-ccd9fcd87597{fill-rule:evenodd}</style><clipPath id="6daf17e3-dd94-4b48-9d24-1b7efbcfcc3c"><path d="M11.5,7,7,11.5l1.06,1.06,2.69-2.69V25h1.5V9.87l2.69,2.69L16,11.5ZM23.94,19.44l-2.69,2.69V7h-1.5V22.13l-2.69-2.69L16,20.5,20.5,25,25,20.5Z" class="91a00630-1064-4b74-ae81-74a1914071f8"/></clipPath></defs><title>X5GON_Library_Icons</title><g id="f99364ca-6c4d-47ea-8517-c869c6ecc43c" data-name="Layer 3"><g><path d="M11.5,7,7,11.5l1.06,1.06,2.69-2.69V25h1.5V9.87l2.69,2.69L16,11.5ZM23.94,19.44l-2.69,2.69V7h-1.5V22.13l-2.69-2.69L16,20.5,20.5,25,25,20.5Z" class="e4b799b6-759d-4846-8163-ccd9fcd87597"/><g class="9694f9f6-2e9b-485e-95da-a5580a59d39c"><rect width="28" height="28" x="2" y="2"/></g></g></g></svg>